<svg width="1006" height="1016" viewBox="0 0 1006 1016" fill="none" xmlns="http://www.w3.org/2000/svg">
<g filter="url(#filter0_iiii_118_164)">
<g clip-path="url(#clip0_118_164)">
<rect x="103" y="108" width="800" height="800" fill="white"/>
<mask id="mask0_118_164" style="mask-type:alpha" maskUnits="userSpaceOnUse" x="103" y="108" width="800" height="800">
<rect x="103" y="108" width="800" height="800" fill="#EBEBEB"/>
</mask>
<g mask="url(#mask0_118_164)">
<g opacity="0.1" filter="url(#filter1_f_118_164)">
<path d="M24 1027L983 634V1212H24V1027Z" fill="black"/>
</g>
<g opacity="0.1" filter="url(#filter2_f_118_164)">
<path d="M-162 268H977.5L366.5 1059H-162V268Z" fill="black"/>
</g>
<g opacity="0.3">
<rect opacity="0.1" x="103" y="171" width="800" height="4" fill="black"/>
<rect opacity="0.1" x="103" y="238" width="800" height="4" fill="black"/>
<rect opacity="0.1" x="103" y="305" width="800" height="4" fill="black"/>
<rect opacity="0.1" x="103" y="372" width="800" height="4" fill="black"/>
<rect opacity="0.1" x="103" y="439" width="800" height="4" fill="black"/>
<rect opacity="0.1" x="103" y="506" width="800" height="4" fill="black"/>
<rect opacity="0.1" x="103" y="573" width="800" height="4" fill="black"/>
<rect opacity="0.1" x="103" y="640" width="800" height="4" fill="black"/>
<rect opacity="0.1" x="103" y="707" width="800" height="4" fill="black"/>
<rect opacity="0.1" x="103" y="774" width="800" height="4" fill="black"/>
<rect opacity="0.1" x="103" y="841" width="800" height="4" fill="black"/>
</g>
</g>
<g filter="url(#filter3_ddii_118_164)">
<path d="M103 108H903V343.442C903 391.181 884.036 436.964 850.279 470.721L465.721 855.279C431.964 889.036 386.181 908 338.442 908H103V108Z" fill="white"/>
</g>
<mask id="mask1_118_164" style="mask-type:alpha" maskUnits="userSpaceOnUse" x="103" y="108" width="800" height="800">
<path d="M103 108H903V343.442C903 391.181 884.036 436.964 850.279 470.721L465.721 855.279C431.964 889.036 386.181 908 338.442 908H103V108Z" fill="#F8F8F8"/>
</mask>
<g mask="url(#mask1_118_164)">
<g opacity="0.3" filter="url(#filter4_f_118_164)">
<path d="M24 935.5L983 548V1005H24V935.5Z" fill="black"/>
</g>
<g opacity="0.3" filter="url(#filter5_f_118_164)">
<path d="M191 949L840 759.5V1005H191V949Z" fill="black"/>
</g>
<g opacity="0.3" filter="url(#filter6_f_118_164)">
<path d="M84 143H1035L84 1094V143Z" fill="white"/>
</g>
</g>
<g filter="url(#filter7_dd_118_164)">
<path d="M103 108H903V328C903 427.411 822.411 508 723 508H683C583.589 508 503 588.589 503 688V728C503 827.411 422.411 908 323 908H103V108Z" fill="white"/>
</g>
<mask id="mask2_118_164" style="mask-type:alpha" maskUnits="userSpaceOnUse" x="103" y="108" width="800" height="800">
<path d="M103 108H903V328C903 427.411 822.411 508 723 508H683C583.589 508 503 588.589 503 688V728C503 827.411 422.411 908 323 908H103V108Z" fill="white"/>
</mask>
<g mask="url(#mask2_118_164)">
<g opacity="0.04">
<rect x="103" y="305" width="800" height="4" fill="#2543D6"/>
<rect x="103" y="372" width="800" height="4" fill="#2543D6"/>
<rect x="103" y="439" width="800" height="4" fill="#2543D6"/>
<rect x="103" y="506" width="800" height="4" fill="#2543D6"/>
<rect x="103" y="573" width="800" height="4" fill="#2543D6"/>
<rect x="103" y="640" width="800" height="4" fill="#2543D6"/>
<rect x="103" y="707" width="800" height="4" fill="#2543D6"/>
<rect x="103" y="774" width="800" height="4" fill="#2543D6"/>
<rect x="103" y="841" width="800" height="4" fill="#2543D6"/>
</g>
<rect x="103" y="108" width="800" height="197" fill="#2543D6"/>
<g opacity="0.2" filter="url(#filter8_f_118_164)">
<path d="M24 825.5L983 438V1005H24V825.5Z" fill="#2543D6"/>
</g>
<g opacity="0.2" filter="url(#filter9_f_118_164)">
<path d="M138.5 982L1097.5 594.5V1011.5H138.5V982Z" fill="#2543D6"/>
</g>
<g opacity="0.4" filter="url(#filter10_f_118_164)">
<path d="M30 1103.5L1030 103.5V1103.5H30Z" fill="white"/>
</g>
<g opacity="0.4" filter="url(#filter11_f_118_164)">
<path d="M-259 -88H692L-259 863V-88Z" fill="white"/>
</g>
<g opacity="0.4" filter="url(#filter12_f_118_164)">
<path d="M-266 -58H685L-266 893V-58Z" fill="white"/>
</g>
<mask id="mask3_118_164" style="mask-type:alpha" maskUnits="userSpaceOnUse" x="158" y="108" width="471" height="882">
<path d="M158 989.5L416.5 108H629V989.5H158Z" fill="#D9D9D9"/>
</mask>
<g mask="url(#mask3_118_164)">
<g opacity="0.5" filter="url(#filter13_f_118_164)">
<path d="M341.602 161.456C350.178 129.448 383.078 110.453 415.086 119.029C447.094 127.606 466.089 160.506 457.513 192.514L314.072 727.842C310.667 740.55 305.964 752.875 300.039 764.622L202.397 958.185C196.538 969.801 178.969 965.094 179.702 952.104L191.924 735.653C192.666 722.517 194.756 709.492 198.161 696.784L341.602 161.456Z" fill="#2543D6"/>
</g>
</g>
</g>
<g opacity="0.1">
<mask id="mask4_118_164" style="mask-type:alpha" maskUnits="userSpaceOnUse" x="103" y="108" width="800" height="800">
<rect x="103" y="108" width="800" height="800" fill="url(#paint0_linear_118_164)"/>
</mask>
<g mask="url(#mask4_118_164)">
<rect x="103" y="108" width="800" height="800" fill="black"/>
</g>
</g>
</g>
</g>
<path d="M389.465 52.6367C393.478 39.5825 407.313 32.2527 420.367 36.2652L454.338 46.7068C467.393 50.7192 474.722 64.5544 470.71 77.6086L442.135 170.574L360.891 145.602L389.465 52.6367Z" fill="#FDA6A6"/>
<rect x="360.891" y="145.604" width="84.9958" height="32.1014" transform="rotate(17.0857 360.891 145.604)" fill="url(#paint1_linear_118_164)"/>
<g style="mix-blend-mode:multiply">
<rect x="355.613" y="162.784" width="84.9958" height="6.42029" transform="rotate(17.0857 355.613 162.784)" fill="url(#paint2_linear_118_164)"/>
</g>
<g style="mix-blend-mode:multiply">
<rect x="359.008" y="151.734" width="84.9958" height="6.42029" transform="rotate(17.0857 359.008 151.734)" fill="url(#paint3_linear_118_164)"/>
</g>
<rect x="351.463" y="176.282" width="84.7827" height="539.304" transform="rotate(17.0857 351.463 176.282)" fill="#FFD704"/>
<g filter="url(#filter14_i_118_164)">
<path d="M187.577 853.617L192.957 692.055L273.636 717.569L187.577 853.617Z" fill="#FEFFC0"/>
</g>
<path d="M187.389 853.9L188.717 819.046L189.952 818.009L191.839 817.101L194.427 816.985L196.18 816.936L198.062 817.413L200.32 818.1L202.142 818.89L203.754 819.857L204.259 820.593L205.27 822.064L205.994 824.505L187.389 853.9Z" fill="black"/>
<g filter="url(#filter15_f_118_164)">
<rect x="404.156" y="55.4678" width="11.6869" height="652.302" rx="5.84346" transform="rotate(17.0857 404.156 55.4678)" fill="white"/>
</g>
<g style="mix-blend-mode:color-burn" opacity="0.5" filter="url(#filter16_f_118_164)">
<rect x="444.781" y="67.9434" width="11.6869" height="652.302" rx="5.84346" transform="rotate(17.0857 444.781 67.9434)" fill="#294C65"/>
</g>
<g opacity="0.5" filter="url(#filter17_f_118_164)">
<rect x="365.951" y="188.807" width="5.84346" height="513.623" rx="2.92173" transform="rotate(17.0857 365.951 188.807)" fill="white"/>
</g>
<g opacity="0.8" filter="url(#filter18_f_118_164)">
<rect width="7.21576" height="121.278" rx="3.60788" transform="matrix(0.920259 -0.39131 -0.154335 0.988019 211.949 697.099)" fill="white"/>
</g>
<g style="mix-blend-mode:color-burn" opacity="0.5" filter="url(#filter19_f_118_164)">
<rect width="11.7671" height="116.82" rx="5.88355" transform="matrix(-0.541599 -0.840637 -0.42725 0.904134 258.062 717.619)" fill="#294C65"/>
</g>
<defs>
<filter id="filter0_iiii_118_164" x="103" y="68" width="800" height="844" filterUnits="userSpaceOnUse" color-interpolation-filters="sRGB">
<feFlood flood-opacity="0" result="BackgroundImageFix"/>
<feBlend mode="normal" in="SourceGraphic" in2="BackgroundImageFix" result="shape"/>
<feColorMatrix in="SourceAlpha" type="matrix" values="0 0 0 0 0 0 0 0 0 0 0 0 0 0 0 0 0 0 127 0" result="hardAlpha"/>
<feOffset dy="-4"/>
<feGaussianBlur stdDeviation="2"/>
<feComposite in2="hardAlpha" operator="arithmetic" k2="-1" k3="1"/>
<feColorMatrix type="matrix" values="0 0 0 0 0 0 0 0 0 0 0 0 0 0 0 0 0 0 0.08 0"/>
<feBlend mode="normal" in2="shape" result="effect1_innerShadow_118_164"/>
<feColorMatrix in="SourceAlpha" type="matrix" values="0 0 0 0 0 0 0 0 0 0 0 0 0 0 0 0 0 0 127 0" result="hardAlpha"/>
<feOffset dy="4"/>
<feGaussianBlur stdDeviation="2"/>
<feComposite in2="hardAlpha" operator="arithmetic" k2="-1" k3="1"/>
<feColorMatrix type="matrix" values="0 0 0 0 1 0 0 0 0 1 0 0 0 0 1 0 0 0 0.32 0"/>
<feBlend mode="normal" in2="effect1_innerShadow_118_164" result="effect2_innerShadow_118_164"/>
<feColorMatrix in="SourceAlpha" type="matrix" values="0 0 0 0 0 0 0 0 0 0 0 0 0 0 0 0 0 0 127 0" result="hardAlpha"/>
<feOffset dy="-40"/>
<feGaussianBlur stdDeviation="32"/>
<feComposite in2="hardAlpha" operator="arithmetic" k2="-1" k3="1"/>
<feColorMatrix type="matrix" values="0 0 0 0 0 0 0 0 0 0 0 0 0 0 0 0 0 0 0.04 0"/>
<feBlend mode="normal" in2="effect2_innerShadow_118_164" result="effect3_innerShadow_118_164"/>
<feColorMatrix in="SourceAlpha" type="matrix" values="0 0 0 0 0 0 0 0 0 0 0 0 0 0 0 0 0 0 127 0" result="hardAlpha"/>
<feOffset dy="-2"/>
<feGaussianBlur stdDeviation="1"/>
<feComposite in2="hardAlpha" operator="arithmetic" k2="-1" k3="1"/>
<feColorMatrix type="matrix" values="0 0 0 0 1 0 0 0 0 1 0 0 0 0 1 0 0 0 0.4 0"/>
<feBlend mode="normal" in2="effect3_innerShadow_118_164" result="effect4_innerShadow_118_164"/>
</filter>
<filter id="filter1_f_118_164" x="-232" y="378" width="1471" height="1090" filterUnits="userSpaceOnUse" color-interpolation-filters="sRGB">
<feFlood flood-opacity="0" result="BackgroundImageFix"/>
<feBlend mode="normal" in="SourceGraphic" in2="BackgroundImageFix" result="shape"/>
<feGaussianBlur stdDeviation="128" result="effect1_foregroundBlur_118_164"/>
</filter>
<filter id="filter2_f_118_164" x="-226" y="204" width="1267.5" height="919" filterUnits="userSpaceOnUse" color-interpolation-filters="sRGB">
<feFlood flood-opacity="0" result="BackgroundImageFix"/>
<feBlend mode="normal" in="SourceGraphic" in2="BackgroundImageFix" result="shape"/>
<feGaussianBlur stdDeviation="32" result="effect1_foregroundBlur_118_164"/>
</filter>
<filter id="filter3_ddii_118_164" x="-115" y="-110" width="1300" height="1300" filterUnits="userSpaceOnUse" color-interpolation-filters="sRGB">
<feFlood flood-opacity="0" result="BackgroundImageFix"/>
<feColorMatrix in="SourceAlpha" type="matrix" values="0 0 0 0 0 0 0 0 0 0 0 0 0 0 0 0 0 0 127 0" result="hardAlpha"/>
<feOffset dx="32" dy="32"/>
<feGaussianBlur stdDeviation="125"/>
<feComposite in2="hardAlpha" operator="out"/>
<feColorMatrix type="matrix" values="0 0 0 0 0 0 0 0 0 0 0 0 0 0 0 0 0 0 0.32 0"/>
<feBlend mode="normal" in2="BackgroundImageFix" result="effect1_dropShadow_118_164"/>
<feColorMatrix in="SourceAlpha" type="matrix" values="0 0 0 0 0 0 0 0 0 0 0 0 0 0 0 0 0 0 127 0" result="hardAlpha"/>
<feOffset dx="4" dy="4"/>
<feGaussianBlur stdDeviation="32"/>
<feComposite in2="hardAlpha" operator="out"/>
<feColorMatrix type="matrix" values="0 0 0 0 0 0 0 0 0 0 0 0 0 0 0 0 0 0 0.12 0"/>
<feBlend mode="normal" in2="effect1_dropShadow_118_164" result="effect2_dropShadow_118_164"/>
<feBlend mode="normal" in="SourceGraphic" in2="effect2_dropShadow_118_164" result="shape"/>
<feColorMatrix in="SourceAlpha" type="matrix" values="0 0 0 0 0 0 0 0 0 0 0 0 0 0 0 0 0 0 127 0" result="hardAlpha"/>
<feOffset dx="-32" dy="-32"/>
<feGaussianBlur stdDeviation="32"/>
<feComposite in2="hardAlpha" operator="arithmetic" k2="-1" k3="1"/>
<feColorMatrix type="matrix" values="0 0 0 0 0 0 0 0 0 0 0 0 0 0 0 0 0 0 0.12 0"/>
<feBlend mode="normal" in2="shape" result="effect3_innerShadow_118_164"/>
<feColorMatrix in="SourceAlpha" type="matrix" values="0 0 0 0 0 0 0 0 0 0 0 0 0 0 0 0 0 0 127 0" result="hardAlpha"/>
<feOffset dx="-4" dy="-4"/>
<feGaussianBlur stdDeviation="16"/>
<feComposite in2="hardAlpha" operator="arithmetic" k2="-1" k3="1"/>
<feColorMatrix type="matrix" values="0 0 0 0 0 0 0 0 0 0 0 0 0 0 0 0 0 0 0.16 0"/>
<feBlend mode="normal" in2="effect3_innerShadow_118_164" result="effect4_innerShadow_118_164"/>
</filter>
<filter id="filter4_f_118_164" x="-488" y="36" width="1983" height="1481" filterUnits="userSpaceOnUse" color-interpolation-filters="sRGB">
<feFlood flood-opacity="0" result="BackgroundImageFix"/>
<feBlend mode="normal" in="SourceGraphic" in2="BackgroundImageFix" result="shape"/>
<feGaussianBlur stdDeviation="256" result="effect1_foregroundBlur_118_164"/>
</filter>
<filter id="filter5_f_118_164" x="63" y="631.5" width="905" height="501.5" filterUnits="userSpaceOnUse" color-interpolation-filters="sRGB">
<feFlood flood-opacity="0" result="BackgroundImageFix"/>
<feBlend mode="normal" in="SourceGraphic" in2="BackgroundImageFix" result="shape"/>
<feGaussianBlur stdDeviation="64" result="effect1_foregroundBlur_118_164"/>
</filter>
<filter id="filter6_f_118_164" x="36" y="95" width="1047" height="1047" filterUnits="userSpaceOnUse" color-interpolation-filters="sRGB">
<feFlood flood-opacity="0" result="BackgroundImageFix"/>
<feBlend mode="normal" in="SourceGraphic" in2="BackgroundImageFix" result="shape"/>
<feGaussianBlur stdDeviation="24" result="effect1_foregroundBlur_118_164"/>
</filter>
<filter id="filter7_dd_118_164" x="99" y="104" width="816" height="816" filterUnits="userSpaceOnUse" color-interpolation-filters="sRGB">
<feFlood flood-opacity="0" result="BackgroundImageFix"/>
<feColorMatrix in="SourceAlpha" type="matrix" values="0 0 0 0 0 0 0 0 0 0 0 0 0 0 0 0 0 0 127 0" result="hardAlpha"/>
<feOffset dy="2"/>
<feGaussianBlur stdDeviation="1"/>
<feComposite in2="hardAlpha" operator="out"/>
<feColorMatrix type="matrix" values="0 0 0 0 1 0 0 0 0 1 0 0 0 0 1 0 0 0 0.64 0"/>
<feBlend mode="normal" in2="BackgroundImageFix" result="effect1_dropShadow_118_164"/>
<feColorMatrix in="SourceAlpha" type="matrix" values="0 0 0 0 0 0 0 0 0 0 0 0 0 0 0 0 0 0 127 0" result="hardAlpha"/>
<feOffset dx="4" dy="4"/>
<feGaussianBlur stdDeviation="4"/>
<feComposite in2="hardAlpha" operator="out"/>
<feColorMatrix type="matrix" values="0 0 0 0 1 0 0 0 0 1 0 0 0 0 1 0 0 0 0.25 0"/>
<feBlend mode="normal" in2="effect1_dropShadow_118_164" result="effect2_dropShadow_118_164"/>
<feBlend mode="normal" in="SourceGraphic" in2="effect2_dropShadow_118_164" result="shape"/>
</filter>
<filter id="filter8_f_118_164" x="-488" y="-74" width="1983" height="1591" filterUnits="userSpaceOnUse" color-interpolation-filters="sRGB">
<feFlood flood-opacity="0" result="BackgroundImageFix"/>
<feBlend mode="normal" in="SourceGraphic" in2="BackgroundImageFix" result="shape"/>
<feGaussianBlur stdDeviation="256" result="effect1_foregroundBlur_118_164"/>
</filter>
<filter id="filter9_f_118_164" x="10.5" y="466.5" width="1215" height="673" filterUnits="userSpaceOnUse" color-interpolation-filters="sRGB">
<feFlood flood-opacity="0" result="BackgroundImageFix"/>
<feBlend mode="normal" in="SourceGraphic" in2="BackgroundImageFix" result="shape"/>
<feGaussianBlur stdDeviation="64" result="effect1_foregroundBlur_118_164"/>
</filter>
<filter id="filter10_f_118_164" x="-226" y="-152.5" width="1512" height="1512" filterUnits="userSpaceOnUse" color-interpolation-filters="sRGB">
<feFlood flood-opacity="0" result="BackgroundImageFix"/>
<feBlend mode="normal" in="SourceGraphic" in2="BackgroundImageFix" result="shape"/>
<feGaussianBlur stdDeviation="128" result="effect1_foregroundBlur_118_164"/>
</filter>
<filter id="filter11_f_118_164" x="-515" y="-344" width="1463" height="1463" filterUnits="userSpaceOnUse" color-interpolation-filters="sRGB">
<feFlood flood-opacity="0" result="BackgroundImageFix"/>
<feBlend mode="normal" in="SourceGraphic" in2="BackgroundImageFix" result="shape"/>
<feGaussianBlur stdDeviation="128" result="effect1_foregroundBlur_118_164"/>
</filter>
<filter id="filter12_f_118_164" x="-778" y="-570" width="1975" height="1975" filterUnits="userSpaceOnUse" color-interpolation-filters="sRGB">
<feFlood flood-opacity="0" result="BackgroundImageFix"/>
<feBlend mode="normal" in="SourceGraphic" in2="BackgroundImageFix" result="shape"/>
<feGaussianBlur stdDeviation="256" result="effect1_foregroundBlur_118_164"/>
</filter>
<filter id="filter13_f_118_164" x="51.6797" y="-11.0303" width="535.893" height="1103.84" filterUnits="userSpaceOnUse" color-interpolation-filters="sRGB">
<feFlood flood-opacity="0" result="BackgroundImageFix"/>
<feBlend mode="normal" in="SourceGraphic" in2="BackgroundImageFix" result="shape"/>
<feGaussianBlur stdDeviation="64" result="effect1_foregroundBlur_118_164"/>
</filter>
<filter id="filter14_i_118_164" x="187.576" y="682.163" width="92.6547" height="171.454" filterUnits="userSpaceOnUse" color-interpolation-filters="sRGB">
<feFlood flood-opacity="0" result="BackgroundImageFix"/>
<feBlend mode="normal" in="SourceGraphic" in2="BackgroundImageFix" result="shape"/>
<feColorMatrix in="SourceAlpha" type="matrix" values="0 0 0 0 0 0 0 0 0 0 0 0 0 0 0 0 0 0 127 0" result="hardAlpha"/>
<feOffset dx="6.59415" dy="-9.89123"/>
<feGaussianBlur stdDeviation="6.59415"/>
<feComposite in2="hardAlpha" operator="arithmetic" k2="-1" k3="1"/>
<feColorMatrix type="matrix" values="0 0 0 0 0.886275 0 0 0 0 0.196078 0 0 0 0 0.776471 0 0 0 0.1 0"/>
<feBlend mode="normal" in2="shape" result="effect1_innerShadow_118_164"/>
</filter>
<filter id="filter15_f_118_164" x="172.753" y="15.7113" width="282.329" height="706.459" filterUnits="userSpaceOnUse" color-interpolation-filters="sRGB">
<feFlood flood-opacity="0" result="BackgroundImageFix"/>
<feBlend mode="normal" in="SourceGraphic" in2="BackgroundImageFix" result="shape"/>
<feGaussianBlur stdDeviation="20.6067" result="effect1_foregroundBlur_118_164"/>
</filter>
<filter id="filter16_f_118_164" x="213.378" y="28.1869" width="282.329" height="706.459" filterUnits="userSpaceOnUse" color-interpolation-filters="sRGB">
<feFlood flood-opacity="0" result="BackgroundImageFix"/>
<feBlend mode="normal" in="SourceGraphic" in2="BackgroundImageFix" result="shape"/>
<feGaussianBlur stdDeviation="20.6067" result="effect1_foregroundBlur_118_164"/>
</filter>
<filter id="filter17_f_118_164" x="174.564" y="148.322" width="237.458" height="573.642" filterUnits="userSpaceOnUse" color-interpolation-filters="sRGB">
<feFlood flood-opacity="0" result="BackgroundImageFix"/>
<feBlend mode="normal" in="SourceGraphic" in2="BackgroundImageFix" result="shape"/>
<feGaussianBlur stdDeviation="20.6067" result="effect1_foregroundBlur_118_164"/>
</filter>
<filter id="filter18_f_118_164" x="177.257" y="678.931" width="57.3087" height="153.337" filterUnits="userSpaceOnUse" color-interpolation-filters="sRGB">
<feFlood flood-opacity="0" result="BackgroundImageFix"/>
<feBlend mode="normal" in="SourceGraphic" in2="BackgroundImageFix" result="shape"/>
<feGaussianBlur stdDeviation="8.24269" result="effect1_foregroundBlur_118_164"/>
</filter>
<filter id="filter19_f_118_164" x="186.935" y="694.244" width="85.9727" height="142.48" filterUnits="userSpaceOnUse" color-interpolation-filters="sRGB">
<feFlood flood-opacity="0" result="BackgroundImageFix"/>
<feBlend mode="normal" in="SourceGraphic" in2="BackgroundImageFix" result="shape"/>
<feGaussianBlur stdDeviation="8.24269" result="effect1_foregroundBlur_118_164"/>
</filter>
<linearGradient id="paint0_linear_118_164" x1="503" y1="108" x2="503" y2="908" gradientUnits="userSpaceOnUse">
<stop stop-opacity="0"/>
<stop offset="1" stop-opacity="0.32"/>
</linearGradient>
<linearGradient id="paint1_linear_118_164" x1="445.886" y1="161.485" x2="361.129" y2="167.315" gradientUnits="userSpaceOnUse">
<stop stop-color="#D4DBF5"/>
<stop offset="1" stop-color="#F1F6FF"/>
</linearGradient>
<linearGradient id="paint2_linear_118_164" x1="440.609" y1="165.961" x2="364.457" y2="192.149" gradientUnits="userSpaceOnUse">
<stop stop-color="#D4DBF5"/>
<stop offset="1" stop-color="#F1F6FF"/>
</linearGradient>
<linearGradient id="paint3_linear_118_164" x1="444.004" y1="154.911" x2="367.851" y2="181.099" gradientUnits="userSpaceOnUse">
<stop stop-color="#D4DBF5"/>
<stop offset="1" stop-color="#F1F6FF"/>
</linearGradient>
<clipPath id="clip0_118_164">
<rect x="103" y="108" width="800" height="800" rx="180" fill="white"/>
</clipPath>
</defs>
</svg>
